<?xml version="1.0" standalone="no"?><!DOCTYPE svg PUBLIC "-//W3C//DTD SVG 1.1//EN" "http://www.w3.org/Graphics/SVG/1.1/DTD/svg11.dtd"><svg t="1757319192216" class="icon" viewBox="0 0 1024 1024" version="1.1" xmlns="http://www.w3.org/2000/svg" p-id="6410" xmlns:xlink="http://www.w3.org/1999/xlink" width="200" height="200"><path d="M117.76 323.84s-87.84 154.32-80 286.08 42.8 164.4 126.16 203.84 84.48-396.4 84.48-396.4L117.76 323.84zM902.72 303.6L787.12 432s18.8 390.8 37.92 394.16c19.12 3.36 116-38.32 146.4-100.24s17.12-165.6 10.16-201.6c-13.52-69.84-78.88-220.72-78.88-220.72z" fill="#FFD2B1" p-id="6411"></path><path d="M513.84 70.48c-83.36-1.04-160.64 25.92-160.64 25.92S213.52-4.96 118.88 76.08C0.72 177.44 105.36 326.08 114.4 336.24s49.52 105.84 49.52 105.84-24.8 96.88-25.92 164.4c-1.6 94.72 19.12 204.24 19.12 204.24s39.44 17.68 75.44 30c28.96 9.92 47.28 12.4 57.44 20.24 10.16 7.92 75.44 99.12 152.08 111.52 67.6 10.96 175.68 3.36 234.24-58.56 44.88-47.44 54.08-59.68 61.92-64.16 7.92-4.48 106.64-26.64 106.64-26.64s34.16-165.92 34.16-238-9.04-129.52-9.04-129.52l38.32-99.12s123.92-158.8 10.16-255.68c-104.72-89.2-222.96 6.72-222.96 6.72S603.92 71.6 513.84 70.48z" fill="#FF8E01" p-id="6412"></path><path d="M152.64 131.28c67.6-58.72 125.04-1.12 125.04 4.48 0 2.72-39.36 25.84-70.96 55.2-33.6 31.2-59.6 68.72-63.04 68.72-6.8 0-50.72-76.56 8.96-128.4zM875.76 147.04c-41.6-38.32-109.28-5.6-111.52 0-1.12 2.8 36 28.4 64.16 56.32 29.2 28.96 54 61.36 56.32 61.92 4.48 1.12 47.28-66.4-8.96-118.24z" fill="#FF6011" p-id="6413"></path><path d="M318.24 698.88s-2.32 228.72 182.48 222.96c217.36-6.72 188.08-212.88 188.08-212.88l-370.56-10.08z" fill="#FFD2B1" p-id="6414"></path><path d="M507.44 649.36s-148.64 77.68-147.52 73.2c0.56-2.16 37.04 26 75.04 56 41.52 32.8 150.08 9.12 150.08 9.12l71.12-64.08-148.72-74.24z" fill="#FEA7A5" p-id="6415"></path><path d="M516.48 513.04s-180.16-86.72-241.04-2.24 0 171.2 42.8 188.08 110.4 75.44 110.4 75.44 11.28-23.68 10.16-34.88c-1.12-11.28-9.04-46.16-9.04-46.16l77.68-43.92 63.04 57.44s-9.04 57.44-4.48 64.16 39.44-7.92 39.44-7.92l18-56.32s43.2-2.64 71.36-6c28.16-3.36 87.44-42.4 80.72-111.12s-68.72-108.08-116-106.96c-47.36 1.12-143.04 30.4-143.04 30.4z" fill="#FFFFFF" p-id="6416"></path><path d="M727.04 693.28c-4.64-11.52-81.12-14.64-130.64-43.92-52-30.72-48.4-66.48-48.4-66.48s37.44-19.12 70.96-43.92c33.52-24.8 62.32-54.72 52.96-70.96-22.16-38.32-92.32 12.4-158.8 9.04-64.24-3.28-148.88-42.24-163.28-21.36-15.2 22 14.8 56.16 50.72 82.24s77.68 43.92 77.68 43.92 0 45.04-57.44 69.84c-64.16 27.68-124.64 25.92-128.4 29.28-11.28 10.16 4.24 21.28 16.88 25.92 12.4 4.48 25.92 4.48 25.92 4.48s10.16 87.84 172.32 91.2c157.68 3.28 163.28-78.8 163.28-78.8s15.76-3.36 30.72-8.88 28.88-13.2 25.52-21.6z m-221.84 72.08c-93.44-1.12-125.04-43.92-125.04-43.92s34.88 0 59.68-5.6c30.64-6.96 66.48-37.2 66.48-37.2s29.2 30.72 54.08 39.44c22.56 7.92 64.16 12.4 64.16 12.4s-25.92 36-119.36 34.88zM383.52 332.88c0 27.68-23.84 50.64-51.84 55.2-27.6 4.48-52.96-19.68-51.84-56.32 0.88-27.68 24.64-45.04 52.96-45.04s50.72 16.32 50.72 46.16zM695.52 385.84c-26.24-8.88-42-31.36-35.36-63.2 7.2-34.8 31.52-48.72 65.76-35.92 25.92 9.68 38.08 42.48 29.84 69.52-7.28 23.92-32 39.12-60.24 29.6zM816.4 329.12c-10.96 12.4-41.6 2.72-45.84 19.52-6 24 57.84 45.04 81.12 14.24 23.28-30.8-2.96-99.44-24.8-84.88-13.44 9.04 0.8 38.32-10.48 51.12z" fill="#2F2F2F" p-id="6417"></path><path d="M875.76 306.56c-8.48 3.44 1.52 30.8 5.28 51.84s0 56.32-12 70.56c-12 14.24-23.28 10.48-23.28 10.48s-28.48-51.36-43.52-30.8c-14.24 19.52 16.48 22.56 12.8 60.8-3.76 38.32-30.24 57.36-3.04 63.04 14.24 3.04 28.56-23.28 28.56-23.28s46.56 0.72 69.84-54.08c17.52-41.2 6.72-72.08-1.52-103.6s-29.44-46.4-33.12-44.96zM880.24 553.6c-28.56 31.52-70.56 66.8-73.6 75.84-3.04 9.04-3.04 30 38.32 23.28s80.32-45.04 92.72-68.72c16.24-30.96 22.16-82.96 13.12-101.76-9.04-18.8-25.52-9.76-30.8 6-5.2 15.84-28.88 53.36-39.76 65.36zM228.48 310.32c-0.72-18.8 18-35.28 6.72-45.04-14.96-12.96-55.6 22.56-42.8 65.36s63.36 37.52 71.68 30.8c13.92-11.28 3.68-21.28-3.76-24.8-11.52-5.44-31.12-8-31.84-26.32zM190.96 420.72s17.28-28.56 31.52-16.48c14.24 12-17.28 32.32-13.52 66.8s23.28 60.08 13.52 69.84c-13.52 13.52-34.56-15.04-41.28-25.52-6.72-10.48-11.28-24.8-11.28-24.8s-46.56-38.32-54.8-85.6c-6.4-36.56 3.76-78.8 26.24-99.12 15.36-13.84 23.12-13.68 29.28-7.52 9.04 9.04-15.04 45.04-6.72 80.32 8.24 35.36 27.04 42.08 27.04 42.08zM158.72 557.36c-20.64-25.76-57.44-86.16-71.36-81.12-16.48 6-13.52 84.24 25.52 129.12 49.52 57.04 113.36 56.32 120.88 33.04 5.52-17.12-39.04-36-75.04-81.04zM466.88 72.16s5.6 40.56-38.88 53.52-71.52-3.52-69.84 32.64c0.88 18 20.08 26.96 39.44 28.16 19.36 1.2 38.56-6 48.96-10.16 22.56-9.04 58.56-53.52 64.72-54.64 6.16-1.12 25.36 30.4 64.16 47.28 17.76 7.68 40.32 14.16 57.6 11.84 18.16-2.4 33.36-14.64 31.92-38.32-0.96-17.92-26.88-8.96-69.68-22.48s-36.8-46.56-36.8-46.56-31.92-3.04-47.68-3.04c-15.76 0.08-43.92 1.76-43.92 1.76z" fill="#2F2F2F" p-id="6418"></path><path d="M513.6 160c-8.8-0.16-29.84 28.16-49.52 37.76s-61.92 11.84-67.04 29.84c-5.04 18 10.72 39.44 53.52 33.76 44.32-5.84 59.12-40.56 64.72-41.12 5.6-0.56 23.68 40.56 72.08 44.48 41.68 3.36 53.12-32.08 40-43.92-18-16.32-50.08-20.24-65.92-27.6-18.72-8.72-39.92-33.04-47.84-33.2z" fill="#2F2F2F" p-id="6419"></path></svg>